<?xml version="1.0" standalone="no"?>
<!DOCTYPE svg PUBLIC "-//W3C//DTD SVG 20010904//EN"
 "http://www.w3.org/TR/2001/REC-SVG-20010904/DTD/svg10.dtd">
<svg version="1.0" xmlns="http://www.w3.org/2000/svg"
 width="2480.000000pt" height="2467.000000pt" viewBox="0 0 2480.000000 2467.000000"
 preserveAspectRatio="xMidYMid meet">
<metadata>
Created by potrace 1.16, written by Peter Selinger 2001-2019
</metadata>
<g transform="translate(0.000000,2467.000000) scale(0.100000,-0.100000)"
fill="#000000" stroke="none">
<path d="M11836 23275 c-3 -10 3 -17 22 -22 26 -7 797 -10 1326 -4 202 2 262
5 272 16 8 7 14 16 14 19 0 3 -360 6 -801 6 -531 0 -798 -3 -794 -10 3 -5 1
-10 -4 -10 -6 0 -11 5 -11 10 0 15 -17 12 -24 -5z"/>
<path d="M11220 23212 c-25 -1 -52 -5 -60 -8 -8 -4 -31 -7 -50 -8 -65 -5 -135
-19 -147 -31 -10 -11 -34 -12 -83 -5 -8 1 -1 6 15 10 l30 8 -30 1 c-16 0 -37
-4 -45 -9 -13 -8 -12 -10 3 -10 10 0 15 -4 12 -10 -3 -6 1 -7 10 -4 8 4 21 2
28 -3 20 -15 64 -14 77 2 18 21 48 18 55 -5 10 -31 50 -53 82 -45 34 8 43 21
43 63 0 29 3 32 29 32 17 0 33 -4 36 -10 3 -5 13 -10 21 -10 8 0 13 4 10 9 -4
5 2 8 11 6 10 -2 30 -6 44 -9 14 -3 31 -16 37 -30 6 -14 23 -28 37 -32 48 -12
72 37 40 83 -13 18 -24 21 -87 20 -40 -1 -93 -3 -118 -5z"/>
<path d="M13285 23049 c-86 -27 -155 -30 -637 -29 -447 1 -511 -1 -545 -16
-21 -8 -85 -20 -143 -25 -58 -4 -125 -15 -149 -24 -25 -8 -77 -15 -122 -15
-43 0 -108 -6 -146 -14 -37 -8 -104 -14 -148 -14 -49 1 -90 -4 -105 -12 -23
-12 -195 -31 -320 -34 -40 -1 -64 -8 -87 -25 -21 -16 -39 -22 -55 -18 -13 4
-72 -2 -132 -12 -78 -14 -134 -18 -204 -14 -91 5 -102 4 -157 -22 -48 -22 -69
-26 -105 -21 -225 30 -278 27 -300 -14 -14 -27 -13 -90 3 -90 56 0 198 -26
226 -41 53 -28 134 -25 195 7 40 21 55 24 80 17 71 -20 34 -68 -104 -138 -50
-26 -58 -27 -98 -16 -53 14 -62 9 -62 -33 0 -56 19 -95 48 -102 15 -3 36 -7
46 -9 11 -2 40 5 64 15 25 11 54 20 66 20 29 0 193 48 231 67 19 10 53 15 97
15 55 -1 93 7 204 43 75 25 175 54 223 65 85 20 179 49 254 76 25 10 83 14
180 14 93 0 161 5 197 15 33 9 75 13 105 9 86 -9 218 -35 277 -55 32 -10 71
-19 88 -19 17 0 59 -7 93 -16 52 -13 84 -14 178 -6 62 5 146 17 184 26 131 31
160 36 240 36 113 1 262 -16 385 -44 58 -13 150 -33 205 -45 55 -12 132 -28
170 -36 39 -8 106 -20 150 -26 44 -6 91 -17 105 -24 14 -7 50 -15 80 -19 70
-8 88 -11 125 -26 37 -15 262 -42 365 -45 55 -1 83 -7 105 -21 25 -16 44 -19
135 -16 128 3 164 11 168 38 8 53 -102 123 -205 132 -52 4 -66 9 -75 26 -6 12
-10 22 -9 23 9 9 43 147 46 187 2 27 10 55 17 62 7 7 46 20 87 28 87 18 105
31 77 52 -25 18 -64 18 -163 -1 -87 -17 -130 -12 -250 25 -36 11 -93 20 -127
20 -33 0 -88 7 -121 15 -33 8 -88 14 -122 15 -39 0 -90 9 -137 25 -48 16 -97
25 -138 25 -35 0 -92 9 -127 20 -49 16 -100 21 -220 24 -86 2 -169 0 -186 -5z"/>
<path d="M9119 22755 c-1 -6 -1 -13 0 -17 0 -5 -2 -7 -6 -7 -32 5 -84 -4 -97
-16 -8 -8 -19 -15 -24 -15 -6 0 -13 -7 -16 -16 -5 -13 -9 -14 -21 -4 -20 17
-78 3 -71 -16 4 -10 2 -12 -5 -8 -7 4 -10 1 -7 -7 3 -8 11 -13 17 -11 7 1 9
-2 5 -9 -5 -9 -12 -6 -24 9 -19 23 -56 26 -65 4 -2 -7 0 -10 5 -7 6 3 10 -1
10 -9 0 -18 -16 -21 -25 -6 -9 14 -52 12 -58 -2 -4 -10 -6 -10 -6 0 -1 10 -4
10 -16 -2 -19 -18 -19 -27 -1 -20 19 7 31 -15 17 -29 -9 -9 -11 -8 -6 5 6 14
1 17 -34 15 -22 -2 -42 2 -44 8 -2 6 -10 5 -20 -4 -9 -7 -14 -17 -11 -22 3 -5
-2 -6 -10 -3 -17 7 -49 -19 -38 -31 4 -4 -6 -5 -23 -2 -20 3 -40 -1 -61 -14
-26 -16 -30 -23 -26 -50 3 -23 13 -35 39 -47 48 -23 67 -8 71 52 2 26 7 44 13
41 5 -4 9 -2 9 3 0 5 12 9 28 8 15 -1 26 -6 25 -13 -3 -13 48 -8 57 6 8 13 72
39 110 45 47 9 74 14 80 16 3 1 15 1 27 0 13 -1 35 8 51 18 15 11 57 26 92 33
85 17 91 22 84 73 -6 39 -23 72 -25 51z"/>
<path d="M9775 22643 c-11 -2 -29 -8 -40 -14 -73 -34 -149 -52 -251 -59 -90
-5 -119 -11 -155 -31 -24 -13 -45 -32 -47 -42 -3 -16 1 -17 33 -11 21 4 68 1
107 -6 l70 -14 -6 -35 c-3 -20 -6 -44 -6 -53 0 -9 -20 -40 -45 -69 -70 -82
-60 -104 56 -124 43 -8 148 10 167 28 17 17 7 41 -23 57 -54 29 -56 111 -4
165 15 17 35 50 44 75 27 76 47 90 131 90 87 0 113 22 43 35 -11 2 -28 6 -37
8 -9 3 -26 3 -37 0z"/>
<path d="M5821 21021 c-8 -5 -21 -7 -28 -4 -8 3 -21 -4 -29 -16 -8 -11 -20
-21 -25 -21 -12 0 -112 -73 -139 -102 -11 -12 -20 -31 -21 -42 0 -21 -1 -21
-9 -1 -5 11 -9 15 -9 8 -1 -6 -11 -13 -23 -15 -13 -2 -23 -9 -23 -15 0 -7 -4
-13 -8 -12 -12 1 -36 -34 -31 -43 3 -5 -4 -8 -14 -8 -11 0 -25 -6 -31 -14 -9
-11 -1 -15 48 -20 64 -7 113 8 124 38 7 17 -8 30 -23 21 -5 -3 -10 4 -10 15 0
16 5 20 15 16 18 -7 45 3 45 16 0 5 -4 6 -10 3 -6 -3 -7 1 -4 10 4 9 13 13 23
11 24 -8 43 8 46 40 4 41 14 63 36 75 15 7 17 6 13 -5 -3 -8 3 -19 15 -26 18
-9 27 -7 51 10 17 12 28 26 25 30 -3 5 3 17 14 27 29 24 14 44 -18 24z"/>
<path d="M16492 20602 c-52 -33 -293 -274 -304 -304 -9 -23 -46 -63 -230 -248
-75 -76 -152 -162 -171 -192 -19 -29 -72 -89 -117 -133 -45 -44 -108 -119
-140 -166 -35 -52 -73 -95 -94 -107 -42 -25 -96 -96 -96 -127 0 -30 38 -68 96
-98 27 -14 56 -33 66 -43 24 -28 59 -139 69 -219 20 -174 32 -215 63 -215 12
0 60 43 106 96 14 16 41 43 60 60 19 17 45 42 56 55 35 39 106 95 151 117 45
24 78 62 113 132 12 25 41 72 65 105 23 33 55 85 70 115 16 30 38 73 49 95 11
22 42 61 68 86 26 26 50 60 53 75 4 16 17 61 30 99 12 39 32 106 45 150 12 44
38 116 57 160 l36 80 -2 175 c-3 184 -9 213 -53 244 -26 18 -28 19 -46 8z"/>
<path d="M4758 19860 c-48 -25 -64 -41 -111 -113 -30 -46 -67 -93 -83 -104
-18 -13 -36 -41 -47 -71 -13 -38 -25 -53 -50 -65 -55 -27 -125 -108 -262 -304
-39 -56 -73 -94 -98 -107 -42 -24 -147 -139 -147 -162 0 -32 -34 -78 -128
-173 -53 -54 -106 -113 -117 -132 -11 -19 -27 -45 -35 -59 -9 -14 -33 -54 -54
-90 -21 -36 -57 -87 -81 -115 -39 -47 -93 -123 -157 -227 -15 -23 -43 -64 -61
-90 -19 -25 -37 -63 -40 -85 -5 -27 -18 -50 -47 -78 -23 -22 -51 -56 -62 -75
-12 -19 -36 -52 -54 -72 -42 -47 -70 -102 -78 -154 -5 -25 -23 -63 -48 -95
-22 -30 -47 -70 -56 -89 -8 -19 -31 -51 -52 -70 -24 -22 -42 -51 -51 -80 -7
-25 -23 -56 -35 -70 -30 -34 -98 -155 -114 -205 -7 -22 -21 -51 -30 -65 -10
-14 -21 -36 -25 -50 -4 -14 -15 -43 -25 -65 -10 -22 -26 -61 -37 -86 -11 -25
-34 -65 -51 -88 -17 -24 -41 -68 -52 -98 -11 -29 -28 -71 -39 -91 -10 -20 -21
-56 -25 -78 -3 -23 -19 -73 -36 -111 -16 -39 -39 -106 -50 -149 -12 -44 -30
-90 -39 -104 -25 -35 -91 -202 -91 -231 0 -13 -11 -49 -24 -80 -12 -31 -33
-98 -45 -150 -13 -52 -38 -146 -57 -209 -18 -63 -35 -133 -38 -155 -9 -75 -44
-220 -66 -275 -45 -113 -49 -126 -50 -158 0 -18 -8 -47 -17 -65 -10 -19 -20
-73 -25 -132 -13 -151 -23 -216 -43 -260 -14 -32 -16 -55 -11 -110 4 -49 2
-88 -9 -128 -8 -32 -15 -95 -15 -141 0 -56 -7 -104 -20 -146 -19 -61 -20 -82
-14 -794 5 -622 8 -739 21 -786 12 -41 16 -112 18 -285 2 -134 7 -245 14 -265
6 -19 11 -73 11 -120 1 -47 7 -112 15 -145 8 -33 15 -95 15 -137 0 -101 53
-302 134 -513 8 -22 15 -56 16 -75 0 -19 16 -80 36 -135 49 -137 100 -301 130
-415 13 -52 42 -133 63 -180 21 -47 58 -143 81 -215 24 -71 56 -152 71 -180
15 -27 37 -84 49 -125 23 -77 88 -209 120 -245 19 -20 80 -148 80 -167 0 -5
16 -46 36 -91 20 -45 53 -130 75 -189 44 -123 59 -156 103 -218 18 -25 41 -64
51 -88 10 -24 28 -51 40 -60 26 -21 101 -134 150 -227 35 -68 56 -95 148 -184
25 -24 59 -72 76 -106 17 -35 63 -112 103 -172 40 -59 82 -129 94 -154 12 -26
42 -77 67 -115 24 -38 73 -114 107 -169 34 -55 81 -118 104 -140 90 -89 147
-156 161 -189 21 -50 70 -102 134 -143 94 -60 199 -151 266 -232 35 -42 80
-85 100 -95 33 -18 121 -115 208 -229 40 -54 98 -107 170 -156 26 -18 92 -72
147 -121 54 -49 126 -103 159 -120 33 -16 75 -46 92 -65 17 -19 56 -51 85 -71
29 -20 55 -42 58 -50 6 -15 255 -200 348 -258 35 -22 88 -65 119 -96 44 -44
83 -69 173 -113 64 -31 142 -74 173 -95 82 -54 144 -88 175 -96 15 -3 46 -26
68 -50 23 -24 56 -50 73 -56 18 -6 68 -29 112 -50 44 -21 111 -51 150 -67 38
-15 96 -45 128 -66 32 -20 88 -53 125 -72 37 -20 92 -51 122 -70 30 -19 78
-42 105 -50 94 -28 227 -104 285 -160 41 -41 66 -56 100 -64 25 -6 88 -32 140
-60 52 -27 126 -61 163 -75 38 -14 81 -35 97 -46 41 -29 152 -80 175 -80 11 0
38 -12 60 -25 27 -17 55 -25 85 -25 34 0 55 -8 84 -30 48 -37 67 -37 130 -2
68 38 73 50 51 108 -21 57 -71 109 -125 130 -21 8 -52 33 -70 56 -20 25 -53
49 -85 64 -42 18 -55 30 -64 56 -7 23 -52 71 -142 153 -72 66 -144 127 -160
137 -16 10 -93 80 -172 157 -78 77 -182 174 -232 215 -49 42 -100 91 -113 109
-12 18 -49 57 -83 87 -44 40 -63 64 -68 90 -4 23 -15 39 -32 47 -14 7 -42 41
-62 75 -20 35 -49 77 -63 93 -14 17 -44 66 -66 109 -41 82 -117 171 -176 208
-23 14 -42 39 -58 75 -38 85 -72 130 -141 184 -40 31 -81 76 -108 117 -24 37
-58 81 -75 97 -18 17 -53 57 -78 90 -25 33 -71 87 -102 120 -38 40 -63 77 -75
110 -23 69 -44 206 -54 360 -5 72 -14 146 -20 165 -6 19 -10 69 -8 110 2 67
-1 79 -25 113 -26 38 -26 40 -22 180 5 155 23 238 79 362 27 59 54 131 71 187
10 31 35 79 55 105 39 48 115 195 126 243 3 14 21 53 39 87 l34 61 0 250 c0
192 -3 260 -15 298 -8 27 -15 61 -15 75 0 15 -7 42 -14 61 -10 23 -13 53 -10
89 4 39 2 59 -9 74 -20 26 -36 11 -38 -35 -3 -60 13 -194 24 -209 7 -8 12
-118 13 -315 1 -279 0 -302 -17 -321 -10 -11 -26 -38 -35 -60 -9 -22 -24 -52
-34 -66 -10 -14 -22 -37 -25 -51 -4 -15 -13 -29 -20 -32 -8 -3 -23 -22 -33
-43 -11 -21 -29 -46 -40 -56 -11 -10 -25 -39 -32 -65 -7 -26 -24 -59 -37 -73
-22 -24 -23 -32 -18 -90 8 -76 -4 -112 -42 -131 -23 -11 -29 -21 -33 -58 -3
-25 -12 -56 -20 -70 -11 -19 -15 -66 -16 -183 -1 -106 -6 -163 -13 -170 -9 -9
-24 -5 -62 15 -27 16 -59 28 -72 28 -12 0 -40 9 -62 19 -31 14 -47 32 -75 82
-19 35 -56 84 -81 109 -26 25 -55 62 -64 83 -10 21 -28 45 -41 54 -13 8 -49
53 -80 99 -31 46 -65 86 -75 89 -36 12 -75 54 -120 126 -42 70 -58 88 -128
152 -17 16 -31 37 -31 47 0 11 -12 27 -27 37 -39 27 -84 74 -94 99 -4 12 -33
40 -63 61 -53 37 -71 61 -112 160 -10 24 -29 39 -70 59 -42 20 -63 38 -85 72
-16 25 -29 54 -29 63 0 31 -33 82 -108 166 -19 21 -48 70 -67 108 -18 39 -45
81 -60 95 -15 14 -61 94 -102 178 -42 83 -80 152 -84 152 -5 0 -20 22 -33 49
-14 26 -53 90 -88 142 -35 52 -70 110 -78 129 -8 19 -29 55 -46 80 -18 25 -39
72 -48 105 -16 62 -72 183 -99 213 -15 16 -59 130 -107 277 -13 39 -27 75 -32
81 -4 6 -16 35 -27 65 -29 84 -109 230 -166 304 -71 92 -115 200 -115 286 0
58 -55 282 -79 318 -8 13 -20 56 -27 95 -15 90 -79 306 -106 360 -11 22 -29
52 -40 67 -11 15 -27 62 -35 105 -8 43 -24 99 -35 123 -26 57 -44 189 -28 205
8 8 15 6 26 -9 28 -38 109 -138 146 -180 26 -29 41 -58 49 -96 11 -49 20 -62
99 -140 91 -89 129 -109 212 -109 45 0 85 -27 148 -99 38 -44 60 -61 77 -61
14 0 38 -9 53 -20 15 -11 51 -25 80 -32 41 -9 57 -19 78 -49 28 -39 49 -54 92
-63 34 -7 138 -134 154 -188 9 -34 18 -45 41 -52 26 -8 64 -24 135 -56 8 -4
21 -26 28 -48 8 -25 27 -52 44 -65 77 -57 95 -81 108 -142 14 -70 47 -145 90
-204 17 -23 28 -46 25 -51 -13 -21 7 -49 38 -55 51 -10 135 -56 140 -76 3 -11
14 -19 25 -19 25 0 35 -38 27 -93 -6 -34 -2 -42 64 -121 39 -47 76 -88 81 -91
6 -3 10 -19 10 -34 0 -16 11 -40 25 -55 16 -17 25 -39 25 -60 0 -41 17 -64 55
-74 17 -5 30 -13 30 -18 1 -14 55 -117 72 -136 12 -13 14 -29 9 -68 -6 -42 -4
-51 10 -57 12 -4 22 1 32 15 17 26 39 28 70 6 30 -20 28 -48 -6 -92 -16 -20
-48 -63 -72 -96 -25 -32 -66 -77 -92 -99 -34 -29 -53 -55 -68 -94 -27 -72 -25
-93 10 -141 17 -23 30 -46 30 -50 0 -5 9 -17 20 -27 18 -16 26 -17 68 -7 30 7
63 8 88 2 21 -4 80 -8 129 -8 50 0 108 -5 131 -12 23 -7 74 -11 116 -9 73 4
78 6 163 65 49 33 94 69 102 81 13 19 11 22 -20 37 -42 19 -49 28 -71 88 -16
43 -23 51 -81 78 -43 21 -70 41 -85 64 -11 19 -37 48 -56 65 -39 35 -125 81
-149 81 -22 0 -77 29 -92 49 -7 9 -16 27 -19 41 -15 54 -107 179 -170 230 -35
29 -64 56 -64 61 0 20 -70 157 -99 192 -16 21 -33 48 -37 59 -3 11 -25 46 -49
77 -23 31 -52 77 -63 104 -11 26 -25 47 -29 47 -5 0 -17 17 -28 38 -41 80 -79
133 -106 147 -20 11 -34 31 -49 74 -15 39 -37 73 -66 102 -24 24 -44 48 -44
54 0 6 -12 22 -26 36 -14 13 -39 49 -55 79 -34 63 -114 150 -170 185 -62 40
-110 87 -146 142 -64 101 -150 165 -268 200 -10 4 -30 20 -44 36 -14 16 -45
38 -70 49 -25 10 -66 39 -91 63 -25 23 -56 46 -70 50 -63 16 -79 28 -90 61 -7
22 -40 60 -92 106 -44 40 -87 86 -95 101 -8 16 -46 66 -85 111 -51 58 -87 114
-128 197 -31 64 -80 144 -108 179 -36 45 -54 78 -61 112 -6 26 -22 74 -35 106
-13 31 -29 75 -36 97 -7 22 -19 50 -27 62 -8 11 -19 52 -24 90 -11 71 -68 245
-92 285 -8 13 -20 70 -26 128 -17 157 -90 430 -125 470 -8 8 -19 35 -26 59 -6
24 -19 55 -27 68 -8 12 -17 49 -19 81 -2 32 -13 76 -24 97 -19 36 -20 60 -20
316 0 225 3 285 16 320 11 33 14 63 9 119 -5 63 -3 82 14 120 11 25 27 88 36
140 9 52 25 133 36 180 10 47 22 114 25 150 4 36 13 80 20 99 10 25 14 88 14
243 0 148 4 227 14 267 8 31 17 97 21 146 3 50 13 114 21 144 9 30 15 86 14
125 -3 95 -4 90 31 128 42 46 89 128 89 158 0 14 9 40 21 59 45 74 88 168 99
215 9 41 25 64 100 145 66 72 99 117 128 179 31 63 64 108 137 188 54 60 105
125 116 151 29 68 193 324 245 383 37 41 134 188 134 202 0 18 93 152 155 223
65 76 135 175 135 192 0 6 22 44 48 85 27 40 68 107 92 148 24 41 64 98 89
127 94 106 129 156 157 221 20 50 48 88 106 150 81 87 112 147 92 180 -16 24
-24 23 -86 -8z"/>
<path d="M21247 19033 c-33 -32 54 -256 128 -333 24 -25 59 -79 79 -120 20
-41 60 -111 91 -155 30 -44 75 -110 100 -147 50 -75 75 -94 104 -79 29 16 41
65 41 163 0 96 13 139 55 190 23 28 24 37 3 63 -5 6 -71 93 -148 195 l-139
184 -98 2 c-79 1 -106 5 -140 22 -44 23 -65 27 -76 15z"/>
<path d="M20880 17931 c0 -15 5 -43 11 -60 10 -28 15 -32 38 -28 14 3 39 -2
56 -10 16 -9 37 -19 45 -23 8 -4 16 -16 18 -28 2 -13 24 -32 60 -53 31 -17 97
-65 146 -107 80 -68 91 -74 115 -66 20 7 27 17 29 42 4 36 -11 52 -102 117
-31 22 -74 54 -96 72 -22 17 -61 39 -87 49 -56 21 -112 54 -132 78 -18 21 -64
46 -86 46 -10 0 -15 -9 -15 -29z"/>
<path d="M22500 17555 c-6 -8 -19 -29 -29 -48 -24 -48 -111 -146 -143 -163
-74 -39 -190 15 -228 106 -7 16 -29 40 -51 54 -83 56 -124 19 -95 -86 9 -32
16 -87 16 -123 0 -73 13 -105 59 -149 57 -55 29 -92 -64 -84 -66 6 -101 30
-161 116 -26 37 -76 95 -110 129 -35 34 -74 79 -87 101 -33 52 -113 93 -164
85 -47 -7 -54 -18 -46 -63 8 -51 29 -86 60 -106 16 -9 57 -50 93 -91 36 -41
99 -112 140 -157 41 -46 96 -110 122 -142 26 -32 68 -84 93 -114 25 -30 58
-72 73 -94 15 -21 45 -58 67 -83 39 -44 39 -45 46 -151 4 -59 12 -132 18 -162
33 -161 22 -280 -34 -371 -19 -31 -35 -64 -35 -72 0 -18 44 -51 80 -61 14 -4
50 -18 81 -32 65 -28 133 -25 174 8 38 30 37 37 -50 278 -32 89 -44 206 -23
232 8 11 45 24 94 35 l81 17 53 -28 c43 -23 63 -27 98 -23 24 3 74 -1 109 -9
36 -7 70 -11 76 -7 5 3 7 24 4 47 -5 32 -1 50 15 77 11 18 40 95 65 169 41
127 43 138 31 178 -7 23 -16 42 -20 42 -4 0 -8 6 -8 14 0 8 -4 16 -9 18 -9 3
-70 112 -129 233 -19 39 -50 87 -68 107 -23 26 -34 50 -39 85 -4 26 -15 66
-25 88 -11 22 -24 51 -30 65 -5 14 -19 39 -30 55 -11 17 -26 45 -34 63 -17 36
-19 37 -36 17z"/>
<path d="M13536 12697 c-20 -15 -24 -56 -9 -90 6 -12 14 -35 19 -51 7 -24 19
-32 62 -46 73 -24 104 -69 75 -109 -22 -32 -80 -28 -129 8 -33 24 -54 31 -116
37 -70 6 -77 5 -87 -14 -9 -18 -6 -25 29 -55 68 -58 90 -99 90 -170 0 -128 33
-174 116 -161 34 5 48 12 54 28 11 29 37 50 68 54 15 2 49 14 76 27 36 17 54
21 63 13 17 -14 -3 -52 -23 -44 -8 3 -14 1 -14 -5 0 -6 -4 -8 -9 -5 -5 3 -21
-13 -37 -35 -18 -26 -38 -42 -57 -46 -39 -8 -54 -41 -35 -79 24 -53 50 -44
141 46 44 45 98 90 118 101 28 14 44 32 62 72 22 48 30 56 68 68 32 10 44 19
44 34 0 25 -59 65 -98 65 -18 0 -42 11 -64 30 -18 17 -60 43 -91 59 -31 16
-94 64 -140 107 -69 67 -82 84 -82 111 0 51 -54 79 -94 50z"/>
<path d="M15943 12441 c-42 -27 -60 -55 -74 -120 -18 -87 -102 -207 -160 -231
-31 -13 -63 -63 -93 -145 -10 -27 -31 -66 -46 -85 -15 -19 -32 -46 -39 -59 -7
-13 -37 -50 -67 -82 -75 -82 -73 -113 11 -121 28 -3 75 -16 105 -31 30 -14 88
-35 129 -45 45 -12 83 -29 96 -44 24 -24 75 -173 75 -218 0 -30 28 -136 60
-225 19 -52 20 -67 11 -113 -6 -29 -21 -71 -35 -95 -14 -23 -34 -78 -45 -122
-24 -91 -76 -228 -101 -265 -10 -14 -35 -61 -57 -105 -22 -44 -60 -110 -85
-146 -25 -37 -54 -91 -63 -120 -36 -110 -88 -225 -121 -268 -19 -24 -34 -55
-34 -68 0 -30 -31 -124 -81 -240 -23 -53 -39 -108 -39 -130 0 -22 -11 -77 -24
-123 -87 -309 -91 -391 -35 -690 5 -30 15 -84 20 -120 6 -38 19 -78 32 -96 12
-18 41 -59 65 -93 24 -34 60 -73 82 -87 21 -14 46 -42 56 -62 9 -21 44 -71 78
-113 33 -42 70 -88 81 -102 24 -32 121 -61 200 -59 32 0 62 -7 83 -19 19 -11
64 -24 101 -29 36 -5 86 -16 110 -25 63 -22 86 -19 144 20 28 19 57 35 64 35
6 0 49 28 95 63 46 34 104 72 129 85 73 37 102 76 140 187 19 55 42 111 51
125 20 28 78 240 78 283 0 40 -15 64 -52 83 -44 23 -152 44 -223 44 -33 0 -98
10 -144 22 -71 18 -86 26 -102 52 -11 17 -19 40 -19 51 0 11 -15 52 -33 90
-31 64 -59 145 -86 250 -17 64 -13 130 13 199 14 35 34 99 46 141 12 43 37
105 55 139 18 33 36 72 40 86 4 14 16 37 26 51 34 49 87 165 117 259 17 52 51
130 76 172 31 50 50 97 57 135 14 71 32 117 68 163 42 54 91 145 91 170 0 12
13 52 29 88 16 37 34 96 40 132 7 36 34 157 62 270 l50 205 -1 223 c0 147 -4
231 -11 245 -27 50 -150 194 -194 226 -81 58 -137 111 -198 188 -33 40 -71 80
-86 88 -15 7 -72 25 -126 39 -190 49 -220 58 -248 78 -42 30 -105 34 -144 9z"/>
<path d="M8118 12348 c-31 -34 -50 -64 -54 -87 -9 -53 -29 -78 -82 -105 -51
-26 -131 -88 -145 -113 -5 -9 -2 -23 7 -39 14 -21 22 -23 54 -18 50 8 91 -10
182 -81 41 -31 120 -79 175 -105 128 -62 165 -97 165 -155 0 -36 -5 -48 -27
-65 -23 -18 -35 -21 -68 -15 -22 4 -53 7 -70 6 -16 -1 -50 -2 -75 -3 -25 -1
-74 8 -110 19 -58 19 -186 36 -262 34 -15 0 -49 -11 -76 -25 -27 -14 -84 -34
-128 -45 -329 -86 -378 -112 -508 -273 -39 -47 -114 -122 -166 -167 -52 -44
-106 -97 -120 -117 -51 -75 -125 -146 -209 -199 -65 -40 -105 -76 -160 -140
-41 -47 -88 -96 -105 -107 -17 -12 -71 -61 -121 -108 -49 -48 -137 -126 -193
-175 -150 -127 -212 -190 -212 -215 0 -11 7 -34 15 -49 8 -16 17 -48 21 -72 9
-58 16 -65 72 -73 26 -3 57 -12 68 -20 23 -17 105 -32 216 -40 151 -12 181
-19 221 -54 25 -22 22 -30 -27 -54 l-44 -21 -4 -68 c-5 -71 3 -144 18 -159 29
-29 37 -14 60 120 26 150 30 156 103 165 25 3 95 21 154 40 84 27 126 47 188
90 43 31 86 69 93 84 8 15 26 32 40 39 14 6 34 28 45 49 10 21 54 74 96 117
l76 79 83 -6 c63 -5 96 -3 142 10 32 10 91 18 129 18 89 1 144 12 192 36 20
10 46 19 58 19 11 0 56 11 100 24 117 35 209 56 243 56 16 0 43 10 60 23 17
12 53 37 79 56 26 19 82 67 123 106 41 40 94 82 118 94 24 12 46 29 49 37 10
28 57 44 94 33 19 -6 82 -19 141 -29 60 -11 125 -28 146 -39 49 -25 151 -61
173 -61 10 0 38 15 62 34 127 97 312 204 380 220 24 6 27 11 27 44 0 44 10 59
66 94 30 19 43 36 52 66 9 29 28 54 68 88 39 34 67 69 92 118 34 67 36 76 34
156 -2 84 -1 86 39 149 51 81 48 81 223 -13 59 -32 78 -32 186 -5 68 17 102
20 169 16 75 -6 87 -4 110 14 20 16 34 19 67 14 48 -7 88 18 99 62 3 15 20 43
37 62 34 39 148 267 148 297 0 21 -46 54 -74 54 -9 0 -32 -16 -52 -35 -34 -35
-36 -35 -122 -35 -48 0 -109 -7 -136 -15 -74 -22 -714 -22 -777 1 -24 8 -89
26 -144 39 -55 13 -122 34 -149 46 -44 19 -62 21 -161 17 l-112 -4 -11 28
c-13 34 -46 48 -100 41 -28 -4 -77 5 -163 28 -93 25 -153 34 -239 39 -96 4
-121 9 -151 28 -26 16 -52 22 -90 22 -30 0 -67 7 -84 16 -145 77 -226 114
-250 114 -22 0 -40 -13 -77 -52z"/>
<path d="M12161 12306 c-6 -7 -6 -17 -1 -26 15 -24 12 -36 -14 -48 -13 -6 -44
-26 -69 -45 -25 -19 -62 -37 -83 -40 -22 -4 -51 -18 -66 -32 -15 -14 -49 -38
-75 -53 -26 -16 -53 -39 -60 -52 -6 -13 -24 -30 -40 -38 -15 -9 -50 -37 -77
-65 -45 -46 -50 -49 -86 -43 -28 4 -43 2 -54 -9 -15 -15 -36 -76 -36 -103 0
-7 -10 -23 -22 -35 -37 -36 -98 -132 -109 -171 -5 -19 -32 -59 -60 -88 -27
-29 -52 -64 -55 -78 -10 -47 -27 -69 -53 -72 -26 -3 -26 -4 -26 -88 -1 -71 -5
-93 -23 -124 -22 -37 -22 -41 -8 -83 14 -41 14 -49 -4 -106 -23 -73 -25 -140
-5 -220 14 -59 26 -82 58 -105 9 -7 40 -47 67 -87 28 -41 69 -91 91 -112 23
-21 51 -58 63 -82 25 -53 83 -88 258 -156 79 -32 144 -66 205 -108 l88 -62
105 -3 c58 -2 128 1 157 8 29 6 110 15 180 20 140 9 278 37 363 74 30 14 93
30 140 36 47 6 98 16 113 22 32 12 57 54 57 96 0 16 7 51 15 78 8 27 15 72 15
99 0 28 7 72 15 99 8 27 15 72 15 99 0 39 8 64 36 114 36 66 84 207 84 252 0
14 14 49 30 76 36 61 37 68 4 111 -38 49 -62 45 -119 -21 -37 -44 -57 -58 -93
-68 -25 -6 -57 -24 -71 -39 -14 -16 -47 -35 -73 -44 -26 -8 -50 -20 -54 -25
-12 -20 -178 -90 -247 -105 -40 -8 -106 -25 -147 -38 -41 -13 -102 -27 -135
-31 -33 -4 -84 -14 -113 -23 -54 -16 -54 -16 -105 11 -29 15 -76 36 -104 47
-93 35 -190 88 -212 117 -31 38 -23 62 33 105 28 20 55 47 62 60 8 15 28 28
57 35 72 20 174 81 212 128 46 56 104 95 141 95 16 0 42 7 58 15 28 15 139 46
245 68 30 7 59 20 65 29 15 24 -15 83 -56 109 -28 17 -44 20 -107 15 -71 -5
-75 -4 -103 25 -25 25 -29 34 -22 61 17 81 63 104 188 95 45 -3 98 -13 118
-21 93 -39 205 -10 291 75 51 51 57 62 57 99 0 27 -5 43 -15 47 -9 3 -23 20
-32 37 -26 51 -73 105 -107 123 -64 35 -358 7 -504 -47 -66 -25 -77 -25 -102
0 -31 31 -25 66 20 111 40 40 60 84 44 99 -15 13 -192 19 -203 6z"/>
<path d="M15115 11260 c-34 -14 -224 -214 -240 -253 -14 -34 -14 -40 10 -104
13 -37 32 -115 41 -173 9 -58 21 -122 27 -143 9 -32 110 -163 157 -203 31 -26
96 -94 129 -133 36 -44 66 -57 108 -46 41 10 91 71 109 134 9 31 29 83 44 116
16 33 34 89 40 124 6 35 24 91 40 125 16 34 32 77 35 97 6 35 3 40 -81 133
-51 57 -108 107 -138 125 -28 16 -82 61 -119 100 -107 111 -120 119 -162 101z"/>
<path d="M17187 10690 c-100 -7 -111 -10 -150 -39 -23 -17 -63 -43 -89 -56
-52 -28 -70 -49 -92 -112 -8 -23 -28 -71 -44 -106 -16 -35 -33 -79 -37 -97 -4
-19 -25 -69 -46 -111 -56 -111 -54 -121 40 -204 46 -41 116 -90 168 -117 49
-26 98 -57 108 -68 10 -11 33 -30 51 -41 37 -22 48 -60 83 -277 31 -186 34
-236 21 -328 -10 -70 -22 -104 -66 -190 -31 -59 -61 -135 -70 -176 -13 -58
-24 -79 -55 -112 -22 -22 -48 -63 -58 -91 -42 -111 -94 -244 -123 -310 -63
-144 -69 -178 -69 -426 0 -298 6 -334 82 -484 42 -84 65 -143 75 -194 8 -41
22 -84 32 -94 19 -22 184 -101 244 -118 22 -5 59 -27 81 -48 23 -21 53 -42 67
-46 14 -4 43 -24 66 -45 86 -79 154 -72 218 23 19 29 53 72 76 97 57 62 129
212 140 292 15 102 15 368 0 412 -17 53 -5 64 59 47 47 -12 52 -11 95 14 60
35 64 42 82 125 15 75 29 107 63 150 19 23 21 23 21 5 0 -56 -34 -204 -59
-254 -36 -72 -77 -176 -86 -220 -4 -19 -25 -71 -47 -115 -34 -70 -38 -87 -34
-127 6 -42 4 -47 -28 -76 -34 -29 -35 -32 -29 -85 4 -42 0 -70 -16 -117 -15
-44 -21 -85 -21 -147 l0 -86 58 -61 c77 -83 131 -165 146 -224 7 -27 30 -71
51 -99 66 -85 79 -141 51 -209 -24 -58 -152 -138 -238 -151 -50 -7 -163 -62
-227 -111 -24 -18 -48 -33 -52 -33 -5 0 -55 -23 -111 -51 -57 -28 -163 -77
-236 -109 -83 -37 -151 -74 -183 -101 -28 -23 -75 -50 -106 -61 -31 -10 -92
-40 -137 -66 -44 -27 -107 -59 -138 -70 -81 -30 -231 -107 -248 -127 -28 -34
-97 -64 -183 -79 -48 -8 -93 -19 -100 -23 -6 -4 -50 -11 -97 -14 -198 -17
-309 -30 -375 -43 -38 -8 -110 -22 -160 -30 -186 -32 -281 -54 -390 -92 -38
-13 -79 -24 -90 -24 -11 0 -40 -11 -65 -25 -109 -61 -179 -93 -234 -105 -105
-25 -135 17 -102 144 9 34 28 72 46 92 35 41 36 45 12 67 -13 12 -36 17 -74
17 l-55 0 -92 -95 c-67 -69 -100 -113 -121 -158 -15 -34 -37 -73 -48 -87 -36
-46 -83 -152 -92 -207 -6 -33 -19 -65 -34 -83 -41 -50 -84 -133 -91 -180 -4
-25 -18 -61 -31 -80 -13 -20 -35 -64 -50 -100 -14 -35 -32 -73 -40 -84 -8 -11
-14 -28 -14 -36 0 -47 -57 -152 -148 -273 -54 -73 -113 -152 -130 -177 -33
-48 -81 -98 -150 -157 -24 -20 -64 -65 -88 -99 -38 -54 -53 -65 -121 -96 -117
-54 -349 -128 -428 -138 -74 -9 -115 -22 -205 -64 -37 -17 -72 -26 -106 -26
-38 0 -61 -6 -88 -25 -20 -14 -44 -25 -52 -25 -42 0 -84 -63 -68 -103 6 -16
81 -37 130 -37 25 0 125 54 199 108 22 16 53 32 68 36 16 4 140 7 276 6 183 0
260 4 297 14 27 8 91 17 142 20 60 5 112 14 145 28 77 32 236 32 332 -1 59
-21 88 -24 196 -24 91 1 134 5 155 16 16 8 65 26 109 40 44 14 98 33 120 43
28 12 84 20 190 26 384 21 419 24 475 47 30 12 98 31 150 41 52 11 133 33 180
49 195 67 327 103 425 116 28 4 84 16 127 26 54 14 112 19 201 19 68 0 137 4
153 10 16 5 83 12 149 14 94 3 137 10 199 30 43 14 115 33 160 42 89 18 245
75 288 105 27 20 104 54 273 121 55 21 126 50 157 64 32 14 92 32 135 40 111
21 136 28 248 68 185 65 237 86 278 114 44 28 141 75 287 137 116 50 232 108
310 157 36 22 123 69 193 105 70 35 165 92 210 127 45 34 120 82 167 107 47
24 114 66 150 93 36 27 96 61 134 77 38 15 83 41 100 57 119 111 281 182 416
182 37 0 100 9 141 20 41 11 89 20 107 20 53 0 171 -40 206 -70 91 -80 168
-130 199 -130 47 0 106 19 128 41 35 35 25 75 -32 128 -44 41 -53 56 -74 126
-13 44 -37 118 -53 165 -17 47 -36 113 -43 146 -15 75 -8 97 56 169 24 28 60
77 79 110 20 33 52 73 71 88 19 15 44 45 54 65 21 40 66 85 146 146 28 21 73
61 100 88 28 27 71 64 97 81 64 44 278 226 278 237 0 18 184 202 227 227 26
15 66 55 98 97 132 176 173 223 226 258 45 30 63 50 93 108 33 62 39 86 47
169 4 53 13 114 18 136 6 22 13 204 16 405 4 201 10 384 15 406 13 58 14 1030
1 1125 -19 141 -40 158 -159 134 -43 -8 -103 -27 -135 -41 -75 -33 -107 -23
-131 40 -10 26 -33 56 -57 75 -22 18 -52 51 -66 74 -41 64 -85 107 -109 107
-12 0 -53 -18 -90 -40 -38 -22 -76 -40 -85 -40 -9 0 -44 -20 -78 -45 -59 -44
-127 -76 -226 -109 -27 -9 -73 -29 -101 -45 -41 -24 -56 -41 -82 -93 -29 -56
-127 -180 -231 -293 -21 -22 -60 -80 -87 -128 -27 -48 -80 -129 -117 -179 -75
-100 -97 -138 -97 -165 -1 -41 -43 -106 -125 -189 -47 -49 -94 -102 -102 -119
-9 -16 -64 -77 -123 -135 -88 -85 -109 -112 -114 -142 -4 -21 -27 -63 -54 -99
-92 -121 -113 -155 -127 -204 -18 -59 -68 -125 -96 -125 -41 0 -147 66 -251
157 -83 72 -125 101 -181 124 -58 24 -83 42 -127 90 -47 51 -61 61 -97 66 -59
8 -85 -1 -140 -47 -26 -22 -54 -45 -61 -51 -20 -17 -27 -2 -13 28 7 15 15 66
18 114 5 71 2 96 -16 147 -11 34 -21 78 -21 97 0 19 -7 55 -16 80 -8 26 -21
77 -28 113 -8 41 -24 84 -42 111 -16 24 -39 59 -50 79 -12 19 -44 48 -70 65
-79 49 -182 133 -279 228 -135 131 -188 159 -245 129 -24 -13 -110 -123 -143
-183 -69 -126 -80 -243 -38 -417 48 -197 50 -300 6 -300 -8 0 -30 24 -49 53
-19 28 -45 63 -60 76 -24 23 -28 23 -68 12 -25 -8 -61 -32 -89 -59 -45 -44
-51 -55 -88 -180 -43 -145 -61 -182 -90 -182 -37 0 -41 65 -10 161 12 35 30
76 41 91 20 29 91 197 102 241 4 15 38 77 76 138 38 61 79 136 90 167 20 52
113 254 146 314 8 14 14 41 14 60 0 18 5 49 10 68 6 19 15 85 20 145 6 61 14
146 19 190 11 92 12 89 -81 454 -28 107 -73 177 -183 283 -47 46 -131 128
-188 183 -113 112 -140 125 -248 125 -42 0 -79 7 -107 20 -57 26 -88 29 -215
20z"/>
<path d="M16540 9768 c-22 -35 -45 -81 -50 -103 -6 -22 -17 -56 -25 -75 -20
-52 -14 -272 10 -325 14 -32 16 -57 12 -130 -4 -68 -1 -98 10 -122 18 -39 250
-257 297 -280 20 -9 44 -13 59 -9 28 7 82 83 92 131 4 17 15 51 26 77 13 33
19 71 19 128 0 63 5 90 22 123 16 32 22 65 25 142 2 55 1 109 -1 121 -3 11
-50 55 -103 96 -54 41 -132 112 -173 158 -103 113 -100 111 -127 121 -43 16
-53 10 -93 -53z"/>
<path d="M1591 9503 c1 -27 8 -57 16 -68 7 -11 13 -39 13 -62 0 -24 5 -43 11
-43 5 0 8 -4 4 -9 -3 -5 -1 -12 5 -16 5 -3 10 -24 10 -46 0 -22 6 -52 14 -67
7 -15 16 -48 20 -74 4 -26 11 -50 16 -53 5 -3 12 -26 16 -52 6 -42 34 -113 34
-87 0 6 13 14 29 17 56 12 48 82 -14 118 -23 14 -35 29 -35 42 0 12 -7 35 -15
51 -9 16 -15 47 -13 68 1 31 -4 43 -28 65 -30 28 -34 41 -39 153 -1 32 -31
110 -42 110 -2 0 -3 -21 -2 -47z"/>
<path d="M1905 8478 c-11 -6 -21 -12 -23 -14 -2 -1 4 -16 12 -33 9 -16 16 -41
16 -55 0 -13 4 -26 8 -28 10 -4 42 -92 49 -135 3 -17 13 -39 22 -47 15 -14 16
-12 15 20 -1 19 1 34 6 34 4 0 6 10 5 23 -1 12 -3 27 -4 34 0 6 -7 18 -14 25
-23 22 -35 52 -30 73 23 101 1 138 -62 103z"/>
</g>
</svg>
